# xmcd
#
# Track frame offsets: 
#        150
#        20175
#        52899
#        75840
#        96047
#        118799
#        145983
#        168966
#        189042
#        204393
#        230681
#        244249
#        257552
#        282008
#        304637
#        322787
#
# Disc length: 4642 seconds
#
# Revision: 0
# Processed by: cddbd v1.5.2PL0 Copyright (c) Steve Scherf et al.
# Submitted via: ExactAudioCopyFreeDBPlugin 1.0
#
DISCID=c8122010
DTITLE=Robert Cray - Collected CD2
DYEAR=2018
DGENRE=Blues
TTITLE0=Just A Loser
TTITLE1=I Was Warned
TTITLE2=The Price I Pay
TTITLE3=Some Pain, Some Shame
TTITLE4=1040 Blues
TTITLE5=Moan
TTITLE6=I Can't Quit
TTITLE7=Do That For Me
TTITLE8=27-7 Man (Rock Mix)
TTITLE9=Paroon
TTITLE10=Love Sickness
TTITLE11=Baby's Arms
TTITLE12=Times Makes Two
TTITLE13=Poor Johnny
TTITLE14=Trouble And Pain
TTITLE15=Great Big Old House
EXTD=
EXTT0=
EXTT1=
EXTT2=
EXTT3=
EXTT4=
EXTT5=
EXTT6=
EXTT7=
EXTT8=
EXTT9=
EXTT10=
EXTT11=
EXTT12=
EXTT13=
EXTT14=
EXTT15=
PLAYORDER=
